<svg width="30" height="30" viewBox="0 0 58 58" xmlns="http://www.w3.org/2000/svg"><path d="m54.8 0h-51.6a3.2 3.2 0 0 0 -3.2 3.2v51.6a3.2 3.2 0 0 0 3.2 3.2h27.8v-22.43h-7.55v-8.78h7.55v-6.46c0-7.49 4.58-11.57 11.26-11.57a64.2 64.2 0 0 1 6.74.34v7.83h-4.6c-3.64 0-4.35 1.72-4.35 4.26v5.59h8.7l-1.13 8.78h-7.62v22.44h14.8a3.2 3.2 0 0 0 3.2-3.2v-51.6a3.2 3.2 0 0 0 -3.2-3.2z" fill="#4267b2"/><path d="m40 58v-22.43h7.57l1.13-8.78h-8.7v-5.59c0-2.54.71-4.26 4.35-4.26h4.65v-7.84a64.2 64.2 0 0 0 -6.75-.34c-6.69 0-11.25 4.08-11.25 11.57v6.46h-7.55v8.78h7.55v22.43z" fill="#fff"/></svg>